# xmcd
#
# Track frame offsets:
#	182
#	5910
#	30682
#	63357
#	83865
#	110960
#	132327
#	159205
#	188000
#
# Disc length: 2600 seconds
#
# Revision: 1
# Processed by: cddbd v1.4b41PL2 Copyright (c) Steve Scherf et al.
# Submitted via: OrangeCD Record Catalog 4.0
#
DISCID=740a2609
DTITLE=Black and Blue Notes - Blown Off
DYEAR=1900
DGENRE=
TTITLE0=Lost Site (Intro)
TTITLE1=Final Hours
TTITLE2=Catch 22
TTITLE3=Lisa's Mood
TTITLE4=Favourite (Dance)
TTITLE5=Al's Room
TTITLE6=Blown Off
TTITLE7=Hip To Be Out
TTITLE8=Things Last Thing (Outtro)
EXTD=
EXTT0=
EXTT1=
EXTT2=
EXTT3=
EXTT4=
EXTT5=
EXTT6=
EXTT7=
EXTT8=
PLAYORDER=
